<svg width="174" height="30" viewBox="0 0 174 30" fill="none" xmlns="http://www.w3.org/2000/svg">
<path d="M46.7899 9.07122L37.962 17.7495L31.1541 24.4826C30.2563 25.3803 29.4334 24.4826 29.4334 24.4826L24.5706 19.6946C24.5706 19.6946 23.6729 18.7968 24.5706 17.9739L29.4334 13.1859C30.3312 12.2882 31.1541 13.1859 31.1541 13.1859L32.6503 14.6822C32.9496 15.0562 33.3237 15.2058 33.7725 15.2058C34.2214 15.2058 34.5955 15.0562 34.8947 14.757C35.194 14.4577 35.3436 14.0837 35.3436 13.6348C35.3436 13.1859 35.1192 12.8118 34.8199 12.5126L31.3037 9.07122C31.1541 8.9216 31.0045 8.84679 30.78 8.77197C30.78 8.77197 30.7052 8.77197 30.6304 8.77197C30.4808 8.77197 30.3312 8.77197 30.1815 8.77197C29.7327 8.77197 29.3586 8.9216 29.0594 9.22085L20.3063 17.8991C20.007 18.1983 19.8574 18.5724 19.8574 18.9465C19.8574 19.3205 20.007 19.6946 20.3063 19.9938L29.1342 28.6721C29.4334 28.9713 29.8075 29.121 30.2564 29.121C30.7052 29.121 31.0793 28.9713 31.3785 28.6721L40.2064 19.9938L47.0144 13.2607C47.9121 12.363 48.735 13.2607 48.735 13.2607L53.5978 18.0487C53.5978 18.0487 54.4956 18.9465 53.5978 19.7694L48.735 24.5574C47.8373 25.4552 47.0144 24.5574 47.0144 24.5574L45.4433 23.0612C45.144 22.7619 44.77 22.6871 44.3959 22.6871C44.0219 22.6871 43.6478 22.8367 43.3485 23.136C43.0493 23.4352 42.8997 23.8093 42.8997 24.1833C42.8997 24.5574 43.0493 24.9315 43.2737 25.2307L46.7899 28.7469C47.0892 29.0462 47.4632 29.1958 47.9121 29.1958C48.361 29.1958 48.735 29.0462 49.0343 28.7469L57.8622 20.0687C58.1614 19.7694 58.311 19.3953 58.311 19.0213C58.311 18.6472 58.1614 18.2732 57.8622 17.9739L49.0343 9.29566C48.735 8.99641 48.361 8.84678 47.9121 8.84678C47.4632 8.84678 47.0892 8.99641 46.7899 9.29566V9.07122Z" fill="#006ADA"/>
<path d="M3.77383 20.3728C3.77383 21.8691 4.2227 23.1409 5.04564 24.1135C5.86857 25.086 6.91595 25.6097 8.26258 25.5349C9.6092 25.5349 10.7314 25.086 11.6291 24.1135C12.4521 23.1409 12.9009 21.9439 12.9009 20.4477C12.9009 18.9514 12.4521 17.7544 11.6291 16.7818C10.7314 15.8093 9.68401 15.3604 8.33739 15.3604C7.06557 15.3604 5.94339 15.8093 5.12045 16.7818C4.2227 17.8292 3.77383 19.0262 3.84864 20.3728H3.77383ZM12.6017 0.84679H16.3423V28.303H12.6017V26.6571C11.1055 28.0785 9.45957 28.7518 7.66407 28.7518C5.49451 28.7518 3.6242 28.0037 2.20276 26.3578C0.781323 24.712 0.0332031 22.692 0.0332031 20.298C0.0332031 17.904 0.781323 15.9589 2.20276 14.3878C3.6242 12.742 5.4197 11.919 7.58926 11.9938C9.45957 11.9938 11.1803 12.742 12.6017 14.2382V0.771973V0.84679Z" fill="black"/>
<path d="M65.7191 20.3728C65.7191 21.8691 66.168 23.1409 66.9909 24.1135C67.8139 25.086 68.8613 25.6097 70.2079 25.5349C71.5545 25.5349 72.6767 25.086 73.5745 24.1135C74.3974 23.1409 74.8463 21.9439 74.8463 20.4477C74.8463 18.9514 74.3974 17.7544 73.5745 16.7818C72.6767 15.8093 71.6293 15.3604 70.2827 15.3604C69.0109 15.3604 67.8887 15.8093 67.0658 16.7818C66.168 17.8292 65.7191 19.0262 65.7939 20.3728H65.7191ZM74.547 0.84679H78.2876V28.303H74.547V26.6571C73.0508 28.0785 71.4049 28.7518 69.6094 28.7518C67.4398 28.7518 65.5695 28.0037 64.1481 26.3578C62.7266 24.712 61.9785 22.692 61.9785 20.298C61.9785 17.904 62.7266 15.9589 64.1481 14.3878C65.5695 12.742 67.365 11.919 69.5346 11.9938C71.4049 11.9938 73.1256 12.742 74.547 14.2382V0.771973V0.84679Z" fill="black"/>
<path d="M87.0395 1.77197H83.2988V29.2281H87.0395V1.77197Z" fill="black"/>
<path d="M102.824 17.9814C102.301 16.0363 101.029 15.0637 99.0838 15.0637C98.635 15.0637 98.2609 15.0637 97.812 15.2882C97.438 15.4378 97.0639 15.5874 96.7646 15.8867C96.4654 16.1111 96.1661 16.4852 95.9417 16.7844C95.7173 17.1585 95.4928 17.6073 95.418 17.9814H102.899H102.824ZM106.64 20.9739H95.1188C95.1936 22.2457 95.6425 23.2931 96.3906 24.116C97.2135 24.939 98.1861 25.313 99.3083 25.2382C100.131 25.2382 100.879 25.0886 101.627 24.5649C102.226 24.116 102.899 23.2931 103.647 22.1709L106.79 23.8916C106.341 24.6397 105.817 25.313 105.218 25.9863C104.695 26.51 104.096 27.0337 103.498 27.4078C102.899 27.7818 102.226 28.0811 101.478 28.2307C100.73 28.3803 99.9068 28.53 99.1586 28.4552C96.7646 28.4552 94.8195 27.707 93.3981 26.2108C91.9766 24.7145 91.2285 22.6946 91.2285 20.151C91.2285 17.6073 91.9018 15.5874 93.3233 14.0912C94.7447 12.5949 96.615 11.772 98.9342 11.772C101.253 11.772 103.124 12.5201 104.545 14.0163C105.892 15.5126 106.565 17.5325 106.565 20.151V21.0487L106.64 20.9739Z" fill="black"/>
<path d="M123.623 20.4477C123.623 18.9514 123.174 17.6796 122.351 16.707C121.528 15.7345 120.481 15.2108 119.134 15.2108C117.788 15.2108 116.666 15.6597 115.768 16.6322C114.945 17.53 114.496 18.8018 114.496 20.298C114.496 21.8691 114.945 23.0661 115.768 23.9638C116.591 24.8616 117.713 25.3853 119.06 25.3853C120.331 25.3853 121.454 24.9364 122.277 23.9638C123.174 22.9913 123.548 21.7943 123.548 20.3728L123.623 20.4477ZM114.795 0.771973V14.2382C116.292 12.742 117.937 11.9938 119.808 11.9938C121.977 11.9938 123.773 12.742 125.194 14.3878C126.616 15.9589 127.364 17.9788 127.364 20.298C127.364 22.7668 126.616 24.7868 125.194 26.3578C123.773 28.0037 121.902 28.7518 119.733 28.7518C117.863 28.7518 116.217 28.0785 114.72 26.6571V28.303H111.055V0.846784H114.72L114.795 0.771973Z" fill="black"/>
<path d="M135.444 1.77197H131.703V29.2281H135.444V1.77197Z" fill="black"/>
<path d="M144.123 12.772V21.8991C144.123 24.5175 145.17 25.8642 147.265 25.8642C149.36 25.8642 150.407 24.5175 150.407 21.8991V12.772H154.148V21.9739C154.148 23.0961 153.998 24.2183 153.699 25.2657C153.325 26.1634 152.801 26.9115 152.128 27.51C150.856 28.5574 149.285 29.1559 147.34 29.1559C145.395 29.1559 143.824 28.6322 142.552 27.51C141.804 26.9115 141.28 26.1634 140.906 25.2657C140.607 24.5175 140.457 23.3953 140.457 21.9739V12.772H144.198H144.123Z" fill="black"/>
<path d="M170.008 17.9814C169.484 16.0363 168.213 15.0637 166.267 15.0637C165.819 15.0637 165.444 15.0637 164.996 15.2882C164.622 15.4378 164.247 15.5874 163.948 15.8867C163.649 16.1111 163.35 16.4852 163.125 16.7844C162.901 17.1585 162.676 17.6073 162.602 17.9814H170.083H170.008ZM173.823 20.9739H162.302C162.377 22.2457 162.826 23.2931 163.574 24.116C164.397 24.939 165.37 25.313 166.492 25.2382C167.315 25.2382 168.063 25.0886 168.811 24.5649C169.41 24.116 170.083 23.2931 170.831 22.1709L173.973 23.8916C173.524 24.6397 173.001 25.313 172.402 25.9863C171.878 26.51 171.28 27.0337 170.681 27.4078C170.083 27.7818 169.41 28.0811 168.661 28.2307C167.913 28.3803 167.09 28.53 166.342 28.4552C163.948 28.4552 162.003 27.707 160.582 26.2108C159.16 24.7145 158.412 22.6946 158.412 20.151C158.412 17.6073 159.085 15.5874 160.507 14.0912C161.928 12.5201 163.799 11.772 166.118 11.772C168.512 11.772 170.382 12.5201 171.729 14.0163C173.075 15.5126 173.823 17.5325 173.749 20.151V21.0487L173.823 20.9739Z" fill="black"/>
</svg>
