<svg width="174" height="29" viewBox="0 0 174 29" fill="none" xmlns="http://www.w3.org/2000/svg">
<path d="M46.7867 8.29925L37.9589 16.9775L31.1509 23.7106C30.2532 24.6084 29.4302 23.7106 29.4302 23.7106L24.5674 18.9226C24.5674 18.9226 23.6697 18.0249 24.5674 17.2019L29.4302 12.4139C30.328 11.5162 31.1509 12.4139 31.1509 12.4139L32.6472 13.9102C32.9464 14.2842 33.3205 14.4339 33.7694 14.4339C34.2182 14.4339 34.5923 14.2842 34.8915 13.985C35.1908 13.6857 35.3404 13.3117 35.3404 12.8628C35.3404 12.4139 35.116 12.0399 34.8167 11.7406L31.3006 8.29925C31.1509 8.14963 31.0013 8.07481 30.7769 8C30.7769 8 30.7021 8 30.6272 8C30.4776 8 30.328 8 30.1784 8C29.7295 8 29.3554 8.14962 29.0562 8.44887L20.3031 17.1271C20.0039 17.4264 19.8542 17.8004 19.8542 18.1745C19.8542 18.5486 20.0039 18.9226 20.3031 19.2219L29.131 27.9001C29.4302 28.1994 29.8043 28.349 30.2532 28.349C30.7021 28.349 31.0761 28.1994 31.3754 27.9001L40.2032 19.2219L47.0112 12.4887C47.9089 11.591 48.7319 12.4887 48.7319 12.4887L53.5947 17.2767C53.5947 17.2767 54.4924 18.1745 53.5947 18.9974L48.7319 23.7854C47.8341 24.6832 47.0112 23.7854 47.0112 23.7854L45.4401 22.2892C45.1409 21.9899 44.7668 21.9151 44.3927 21.9151C44.0187 21.9151 43.6446 22.0647 43.3454 22.364C43.0461 22.6632 42.8965 23.0373 42.8965 23.4114C42.8965 23.7854 43.0461 24.1595 43.2706 24.4587L46.7867 27.9749C47.086 28.2742 47.4601 28.4238 47.9089 28.4238C48.3578 28.4238 48.7319 28.2742 49.0311 27.9749L57.859 19.2967C58.1582 18.9974 58.3079 18.6234 58.3079 18.2493C58.3079 17.8752 58.1582 17.5012 57.859 17.2019L49.0311 8.52369C48.7319 8.22444 48.3578 8.07481 47.9089 8.07481C47.4601 8.07481 47.086 8.22444 46.7867 8.52369V8.29925Z" fill="white"/>
<path d="M3.77065 19.6009C3.77065 21.0971 4.21953 22.3689 5.04246 23.3415C5.8654 24.3141 6.91278 24.8377 8.2594 24.7629C9.60603 24.7629 10.7282 24.3141 11.626 23.3415C12.4489 22.3689 12.8978 21.1719 12.8978 19.6757C12.8978 18.1794 12.4489 16.9824 11.626 16.0099C10.7282 15.0373 9.68084 14.5884 8.33421 14.5884C7.0624 14.5884 5.94021 15.0373 5.11727 16.0099C4.21952 17.0572 3.77065 18.2542 3.84546 19.6009H3.77065ZM12.5985 0.074817H16.3392V27.531H12.5985V25.8851C11.1023 27.3066 9.4564 27.9799 7.6609 27.9799C5.49134 27.9799 3.62102 27.2317 2.19959 25.5859C0.77815 23.94 0.0300293 21.9201 0.0300293 19.5261C0.0300293 17.1321 0.77815 15.1869 2.19959 13.6159C3.62102 11.97 5.41653 11.1471 7.58609 11.2219C9.4564 11.2219 11.1771 11.97 12.5985 13.4662V0V0.074817Z" fill="white"/>
<path d="M65.716 19.6009C65.716 21.0971 66.1648 22.3689 66.9878 23.3415C67.8107 24.3141 68.8581 24.8377 70.2047 24.7629C71.5513 24.7629 72.6735 24.3141 73.5713 23.3415C74.3942 22.3689 74.8431 21.1719 74.8431 19.6757C74.8431 18.1794 74.3942 16.9824 73.5713 16.0099C72.6735 15.0373 71.6261 14.5884 70.2795 14.5884C69.0077 14.5884 67.8855 15.0373 67.0626 16.0099C66.1648 17.0572 65.716 18.2542 65.7908 19.6009H65.716ZM74.5438 0.074817H78.2845V27.531H74.5438V25.8851C73.0476 27.3066 71.4017 27.9799 69.6062 27.9799C67.4367 27.9799 65.5663 27.2317 64.1449 25.5859C62.7235 23.94 61.9753 21.9201 61.9753 19.5261C61.9753 17.1321 62.7235 15.1869 64.1449 13.6159C65.5663 11.97 67.3618 11.1471 69.5314 11.2219C71.4017 11.2219 73.1224 11.97 74.5438 13.4662V0V0.074817Z" fill="white"/>
<path d="M87.0363 1H83.2957V28.4562H87.0363V1Z" fill="white"/>
<path d="M102.821 17.2094C102.298 15.2643 101.026 14.2917 99.0807 14.2917C98.6318 14.2917 98.2577 14.2917 97.8088 14.5162C97.4348 14.6658 97.0607 14.8154 96.7615 15.1147C96.4622 15.3391 96.163 15.7132 95.9385 16.0124C95.7141 16.3865 95.4897 16.8354 95.4148 17.2094H102.896H102.821ZM106.637 20.2019H95.1156C95.1904 21.4737 95.6393 22.5211 96.3874 23.3441C97.2103 24.167 98.1829 24.5411 99.3051 24.4662C100.128 24.4662 100.876 24.3166 101.624 23.7929C102.223 23.3441 102.896 22.5211 103.644 21.3989L106.786 23.1196C106.337 23.8677 105.814 24.5411 105.215 25.2144C104.692 25.7381 104.093 26.2617 103.495 26.6358C102.896 27.0099 102.223 27.3091 101.475 27.4587C100.727 27.6084 99.9036 27.758 99.1555 27.6832C96.7615 27.6832 94.8163 26.9351 93.3949 25.4388C91.9735 23.9426 91.2253 21.9226 91.2253 19.379C91.2253 16.8354 91.8987 14.8154 93.3201 13.3192C94.7415 11.8229 96.6118 11 98.931 11C101.25 11 103.121 11.7481 104.542 13.2444C105.889 14.7406 106.562 16.7606 106.562 19.379V20.2767L106.637 20.2019Z" fill="white"/>
<path d="M123.62 19.6757C123.62 18.1794 123.171 16.9076 122.348 15.9351C121.525 14.9625 120.478 14.4388 119.131 14.4388C117.785 14.4388 116.662 14.8877 115.765 15.8602C114.942 16.758 114.493 18.0298 114.493 19.5261C114.493 21.0971 114.942 22.2941 115.765 23.1919C116.588 24.0896 117.71 24.6133 119.056 24.6133C120.328 24.6133 121.45 24.1644 122.273 23.1919C123.171 22.2193 123.545 21.0223 123.545 19.6009L123.62 19.6757ZM114.792 0V13.4662C116.288 11.97 117.934 11.2219 119.805 11.2219C121.974 11.2219 123.77 11.97 125.191 13.6159C126.613 15.1869 127.361 17.2069 127.361 19.5261C127.361 21.9949 126.613 24.0148 125.191 25.5859C123.77 27.2317 121.899 27.9799 119.73 27.9799C117.859 27.9799 116.214 27.3066 114.717 25.8851V27.531H111.052V0.0748113H114.717L114.792 0Z" fill="white"/>
<path d="M135.441 1H131.7V28.4562H135.441V1Z" fill="white"/>
<path d="M144.12 12V21.1271C144.12 23.7456 145.167 25.0922 147.262 25.0922C149.357 25.0922 150.404 23.7456 150.404 21.1271V12H154.145V21.2019C154.145 22.3241 153.995 23.4463 153.696 24.4937C153.322 25.3914 152.798 26.1396 152.125 26.7381C150.853 27.7854 149.282 28.3839 147.337 28.3839C145.391 28.3839 143.82 27.8602 142.549 26.7381C141.8 26.1396 141.277 25.3914 140.903 24.4937C140.603 23.7456 140.454 22.6234 140.454 21.2019V12H144.194H144.12Z" fill="white"/>
<path d="M170.005 17.2094C169.481 15.2643 168.209 14.2917 166.264 14.2917C165.815 14.2917 165.441 14.2917 164.992 14.5162C164.618 14.6658 164.244 14.8154 163.945 15.1147C163.646 15.3391 163.347 15.7132 163.122 16.0124C162.898 16.3865 162.673 16.8354 162.598 17.2094H170.08H170.005ZM173.82 20.2019H162.299C162.374 21.4737 162.823 22.5211 163.571 23.3441C164.394 24.167 165.366 24.5411 166.489 24.4662C167.312 24.4662 168.06 24.3166 168.808 23.7929C169.406 23.3441 170.08 22.5211 170.828 21.3989L173.97 23.1196C173.521 23.8677 172.997 24.5411 172.399 25.2144C171.875 25.7381 171.277 26.2617 170.678 26.6358C170.08 27.0099 169.406 27.3091 168.658 27.4587C167.91 27.6084 167.087 27.758 166.339 27.6832C163.945 27.6832 162 26.9351 160.578 25.4388C159.157 23.9426 158.409 21.9226 158.409 19.379C158.409 16.8354 159.082 14.8154 160.504 13.3192C161.925 11.7481 163.795 11 166.115 11C168.509 11 170.379 11.7481 171.726 13.2444C173.072 14.7406 173.82 16.7606 173.745 19.379V20.2767L173.82 20.2019Z" fill="white"/>
</svg>
